<svg width="96" height="96" viewBox="0 0 96 96" fill="none" xmlns="http://www.w3.org/2000/svg">
<circle cx="48" cy="48" r="48" fill="#03337C"/>
<path d="M59.8095 57.0952H32.9524L24 66.0476V30.2381C24 29.6445 24.2358 29.0752 24.6555 28.6555C25.0752 28.2358 25.6445 28 26.2381 28H59.8095C60.4031 28 60.9724 28.2358 61.3921 28.6555C61.8118 29.0752 62.0476 29.6445 62.0476 30.2381V54.8571C62.0476 55.4507 61.8118 56.02 61.3921 56.4397C60.9724 56.8594 60.4031 57.0952 59.8095 57.0952ZM71 43.6667V75L62.0476 66.0476H37.4286C36.835 66.0476 36.2657 65.8118 35.846 65.3921C35.4263 64.9724 35.1905 64.4031 35.1905 63.8095V61.5714H66.5238V41.4286H68.7619C69.3555 41.4286 69.9248 41.6644 70.3445 42.0841C70.7642 42.5038 71 43.0731 71 43.6667ZM37.8538 32.4762C35.9067 32.4762 34.34 32.9238 33.1314 33.7967C31.9676 34.7143 31.3857 35.99 31.4081 37.7581L31.4305 37.8252H35.75C35.7724 37.1538 35.9738 36.639 36.3767 36.281C36.7911 35.9373 37.3155 35.7545 37.8538 35.7662C38.5476 35.7662 39.1295 35.99 39.5324 36.3929C39.9352 36.8181 40.1143 37.4 40.1143 38.0714C40.1143 38.7876 39.9576 39.3919 39.5995 39.9067C39.2862 40.4214 38.8162 40.869 38.2343 41.2271C37.0929 41.9881 36.3095 42.6595 35.8843 43.2638C35.4367 43.8457 35.1905 44.7857 35.1905 45.9048H39.6667C39.6667 45.211 39.7562 44.6514 39.9576 44.2486C40.159 43.8457 40.5395 43.4429 41.099 43.0848C42.1062 42.5476 42.9343 41.8986 43.5833 41.0033C44.2324 40.1081 44.5681 39.1905 44.5681 38.0714C44.5681 36.3705 43.9638 35.0052 42.7552 33.9981C41.569 32.991 39.9352 32.4762 37.8538 32.4762ZM35.1905 48.1429V52.619H39.6667V48.1429H35.1905ZM48.619 52.619H53.0952V48.1429H48.619V52.619ZM48.619 32.4762V45.9048H53.0952V32.4762H48.619Z" fill="white"/>
</svg>
