<svg width="31" height="27" viewBox="0 0 31 27" fill="none" xmlns="http://www.w3.org/2000/svg">
<path d="M29.0245 11.6936C28.3295 11.6936 27.7699 11.2211 27.7699 10.6345C27.7699 6.76162 24.0308 3.60519 19.4431 3.60519C18.7481 3.60519 18.1885 3.13277 18.1885 2.54613C18.1885 1.95949 18.7481 1.48706 19.4431 1.48706C25.4207 1.48706 30.279 5.58835 30.279 10.6345C30.279 11.2211 29.7194 11.6936 29.0245 11.6936Z" fill="white"/>
<path d="M19.443 5.57251C22.7516 5.57251 25.4452 7.84639 25.4452 10.6394C25.4452 11.2261 24.8856 11.6985 24.1907 11.6985C23.4957 11.6985 22.9361 11.2261 22.9361 10.6394C22.9361 9.01447 21.374 7.69583 19.4492 7.69583C18.7542 7.69583 18.1946 7.22341 18.1946 6.63677C18.1884 6.04494 18.7481 5.57251 19.443 5.57251Z" fill="white"/>
<path d="M2.26045 2.73821C3.30592 1.85047 4.60353 1.26902 6.02413 1.04579C8.12737 0.718721 10.4397 1.28459 11.7127 2.49421C16.1344 6.68895 11.3991 10.5462 11.3683 10.567C12.6167 12.9551 16.3866 16.1479 19.1478 17.1654C19.1786 17.1394 23.6618 13.1731 28.6923 16.8487C31.1769 18.6605 31.1092 22.5801 28.434 24.8488C27.5239 25.6275 26.4354 26.1155 25.2115 26.3024C23.2436 26.6035 21.2511 26.0896 19.5476 25.56C11.9648 23.1979 4.65887 17.4509 1.43022 10.2295C0.347857 7.81031 -0.40242 4.99652 2.26045 2.73821ZM4.00699 9.44563C8.25036 18.4529 16.6818 22.0921 20.4762 23.3848C24.5535 24.7761 25.968 23.66 26.4907 23.2187C28.1019 21.8481 28.3172 19.6365 26.7551 18.4788C23.8832 16.3607 21.1465 18.6242 20.716 19.1901C20.4085 19.5898 19.8059 19.756 19.2585 19.6365C15.3165 18.7851 9.54797 13.9207 8.43486 10.5099C8.28111 10.0478 8.50865 9.57023 8.95144 9.26912C9.64637 8.7915 12.2662 6.69414 9.77552 4.13473C9.10519 3.44426 6.39927 2.52017 4.20379 4.37354C2.91848 5.45337 2.81393 6.90699 4.00699 9.44563Z" fill="white"/>
</svg>
