<svg width="32" height="27" viewBox="0 0 32 27" fill="none" xmlns="http://www.w3.org/2000/svg">
<path d="M17.9297 13.2757C17.9297 12.3943 17.2127 11.6584 16.2487 11.4464V4.25122H15.1281V11.4465C14.1641 11.6585 13.4472 12.3944 13.4472 13.2758C13.4472 14.3218 14.4523 15.1724 15.6883 15.1724C16.1028 15.1724 16.4864 15.0703 16.8197 14.9037L22.9722 20.1102L23.7645 19.4397L17.612 14.2332C17.809 13.9512 17.9297 13.6265 17.9297 13.2757ZM15.6885 14.2241C15.0707 14.2241 14.5679 13.7986 14.5679 13.2758C14.5679 12.753 15.0707 12.3275 15.6885 12.3275C16.3062 12.3275 16.8091 12.753 16.8091 13.2758C16.8091 13.7986 16.3061 14.2241 15.6885 14.2241Z" fill="white"/>
<path d="M31.3627 12.802C31.0727 5.85824 24.4543 0.257362 16.2487 0.0120467V0H15.1281V0.0120467C6.92266 0.257362 0.304124 5.85824 0.0142356 12.802H0V13.7503H0.0142356C0.304124 20.6941 6.92266 26.2948 15.1281 26.5403V26.6106H16.2487V26.5403C24.4541 26.295 31.0725 20.6941 31.3626 13.7503H31.3768V12.802H31.3627ZM30.2421 13.7503C30.1052 16.7922 28.6615 19.5544 26.3715 21.646L24.888 20.3907L24.0957 21.0612L25.5792 22.3165C23.1075 24.2544 19.8434 25.4762 16.2488 25.592V23.7074H15.1283V25.592C11.3928 25.4717 8.01434 24.1566 5.51104 22.0851L7.00117 20.824L6.20887 20.1536L4.74074 21.396C2.60482 19.3363 1.2661 16.6728 1.13468 13.7503H3.92197V12.802H1.13468C1.27703 9.64091 2.83101 6.78194 5.27881 4.66354L6.48884 5.68752L7.28114 5.01704L6.09326 4.0118C8.52697 2.20431 11.6746 1.07155 15.1283 0.960331V2.90326H16.2488V0.960331C19.8434 1.07617 23.1075 2.29788 25.5792 4.23583L24.3759 5.25408L25.1682 5.92456L26.3715 4.9063C28.6615 6.99805 30.1052 9.76016 30.2421 12.802H27.4548V13.7503H30.2421Z" fill="white"/>
</svg>
