<svg width="96" height="96" viewBox="0 0 96 96" fill="none" xmlns="http://www.w3.org/2000/svg">
<circle cx="48" cy="48" r="48" fill="#03337C"/>
<path d="M64.95 28.7H62.6V26.35C62.6 24.94 61.66 24 60.25 24C58.84 24 57.9 24.94 57.9 26.35V28.7H39.1V26.35C39.1 24.94 38.16 24 36.75 24C35.34 24 34.4 24.94 34.4 26.35V28.7H32.05C28.055 28.7 25 31.755 25 35.75V38.1H72V35.75C72 31.755 68.945 28.7 64.95 28.7ZM25 63.95C25 67.945 28.055 71 32.05 71H64.95C68.945 71 72 67.945 72 63.95V42.8H25V63.95ZM60.25 47.5C61.66 47.5 62.6 48.44 62.6 49.85C62.6 51.26 61.66 52.2 60.25 52.2C58.84 52.2 57.9 51.26 57.9 49.85C57.9 48.44 58.84 47.5 60.25 47.5ZM60.25 56.9C61.66 56.9 62.6 57.84 62.6 59.25C62.6 60.66 61.66 61.6 60.25 61.6C58.84 61.6 57.9 60.66 57.9 59.25C57.9 57.84 58.84 56.9 60.25 56.9ZM48.5 47.5C49.91 47.5 50.85 48.44 50.85 49.85C50.85 51.26 49.91 52.2 48.5 52.2C47.09 52.2 46.15 51.26 46.15 49.85C46.15 48.44 47.09 47.5 48.5 47.5ZM48.5 56.9C49.91 56.9 50.85 57.84 50.85 59.25C50.85 60.66 49.91 61.6 48.5 61.6C47.09 61.6 46.15 60.66 46.15 59.25C46.15 57.84 47.09 56.9 48.5 56.9ZM36.75 47.5C38.16 47.5 39.1 48.44 39.1 49.85C39.1 51.26 38.16 52.2 36.75 52.2C35.34 52.2 34.4 51.26 34.4 49.85C34.4 48.44 35.34 47.5 36.75 47.5ZM36.75 56.9C38.16 56.9 39.1 57.84 39.1 59.25C39.1 60.66 38.16 61.6 36.75 61.6C35.34 61.6 34.4 60.66 34.4 59.25C34.4 57.84 35.34 56.9 36.75 56.9Z" fill="white"/>
</svg>
