<svg width="29" height="22" viewBox="0 0 29 22" fill="none" xmlns="http://www.w3.org/2000/svg">
<path d="M14.4314 0L28.8628 7.29593V18.4625C28.8628 20.1075 27.2811 21.446 25.3373 21.446H3.52553C1.58164 21.446 -1.86992e-07 20.1075 -1.86992e-07 18.4625V7.29593L14.4314 0ZM3.70838 7.68812L14.2911 13.2722L14.3459 13.2972C14.3547 13.3011 14.3632 13.3047 14.375 13.3086L14.3877 13.3112C14.4176 13.3173 14.4318 13.3176 14.4318 13.3176C14.4318 13.3176 14.446 13.3173 14.4831 13.3099L14.4897 13.3086C14.4992 13.3053 14.5096 13.3011 14.5234 13.2953C14.5383 13.2881 14.5537 13.281 14.569 13.2742L25.154 7.68812L14.4314 2.26719L3.70838 7.68812ZM3.52553 19.4999H25.3373C26.0131 19.4999 26.5628 19.0348 26.5628 18.4632V9.2384L15.757 14.9403C15.7175 14.9613 15.6776 14.9802 15.6358 14.9983C15.6132 15.0087 15.591 15.0188 15.5699 15.0275C15.402 15.1008 15.231 15.1566 15.0696 15.1923L14.9807 15.2102C14.7944 15.2458 14.61 15.264 14.4302 15.264C14.2516 15.264 14.0661 15.2455 13.8786 15.2092L13.802 15.1943C13.6321 15.157 13.4608 15.1008 13.2963 15.0288C13.2726 15.0188 13.2492 15.0084 13.2247 14.997L2.30001 9.23743V18.4625C2.30001 19.0348 2.84971 19.4999 3.52553 19.4999Z" fill="white"/>
</svg>
