<svg width="19" height="19" viewBox="0 0 19 19" fill="none" xmlns="http://www.w3.org/2000/svg">
<path d="M15.0484 3.08093C15.4607 3.08093 15.8562 3.23653 16.1477 3.51351C16.4393 3.79048 16.6031 4.16614 16.6031 4.55784V14.8962C16.6031 15.2879 16.4393 15.6635 16.1477 15.9405C15.8562 16.2175 15.4607 16.3731 15.0484 16.3731H4.16596C3.75365 16.3731 3.35822 16.2175 3.06667 15.9405C2.77512 15.6635 2.61133 15.2879 2.61133 14.8962V4.55784C2.61133 4.16614 2.77512 3.79048 3.06667 3.51351C3.35822 3.23653 3.75365 3.08093 4.16596 3.08093H15.0484ZM14.6598 14.5269V10.6131C14.6598 9.97467 14.3928 9.36235 13.9176 8.91089C13.4423 8.45942 12.7978 8.20579 12.1257 8.20579C11.465 8.20579 10.6954 8.58979 10.3223 9.16578V8.3461H8.15361V14.5269H10.3223V10.8864C10.3223 10.3178 10.8043 9.85254 11.4028 9.85254C11.6914 9.85254 11.9682 9.96146 12.1723 10.1553C12.3764 10.3492 12.491 10.6122 12.491 10.8864V14.5269H14.6598ZM5.62732 7.18673C5.97367 7.18673 6.30583 7.05602 6.55073 6.82336C6.79563 6.59071 6.93322 6.27515 6.93322 5.94613C6.93322 5.25937 6.35023 4.69814 5.62732 4.69814C5.27892 4.69814 4.94478 4.82963 4.69842 5.06367C4.45206 5.29771 4.31366 5.61514 4.31366 5.94613C4.31366 6.63289 4.90442 7.18673 5.62732 7.18673ZM6.7078 14.5269V8.3461H4.55462V14.5269H6.7078Z" fill="black"/>
</svg>
