<svg width="96" height="96" viewBox="0 0 96 96" fill="none" xmlns="http://www.w3.org/2000/svg">
<circle cx="48" cy="48" r="48" fill="#03337C"/>
<path d="M72 70V62.95C72 56.3042 72 52.9789 69.4179 50.9156C66.8388 48.85 62.6823 48.85 54.375 48.85L48.5 53.55L42.625 48.85C34.3177 48.85 30.1612 48.85 27.5821 50.9156C25 52.9789 25 56.3042 25 62.95V70M60.25 55.9V62.95M64.6562 59.425H55.8438M58.7812 33.575V31.225C58.7813 30.1449 58.5153 29.0753 57.9986 28.0774C57.482 27.0795 56.7246 26.1728 55.7699 25.409C54.8152 24.6453 53.6818 24.0394 52.4345 23.6261C51.1871 23.2127 49.8502 23 48.5 23C47.1498 23 45.8129 23.2127 44.5655 23.6261C43.3182 24.0394 42.1848 24.6453 41.2301 25.409C40.2754 26.1728 39.518 27.0795 39.0014 28.0774C38.4847 29.0753 38.2187 30.1449 38.2188 31.225V33.575C38.2187 34.6551 38.4847 35.7247 39.0014 36.7226C39.518 37.7205 40.2754 38.6272 41.2301 39.391C42.1848 40.1547 43.3182 40.7606 44.5655 41.1739C45.8129 41.5873 47.1498 41.8 48.5 41.8C49.8502 41.8 51.1871 41.5873 52.4345 41.1739C53.6818 40.7606 54.8152 40.1547 55.7699 39.391C56.7246 38.6272 57.482 37.7205 57.9986 36.7226C58.5153 35.7247 58.7813 34.6551 58.7812 33.575Z" stroke="white" stroke-width="1.5" stroke-linecap="round" stroke-linejoin="round"/>
</svg>
