<svg width="19" height="19" viewBox="0 0 19 19" fill="none" xmlns="http://www.w3.org/2000/svg">
<path d="M17.739 0.865601H1.12808C0.855829 0.865601 0.594731 0.968298 0.402222 1.1511C0.209713 1.3339 0.101562 1.58184 0.101562 1.84036V17.6137C0.101563 17.8722 0.209713 18.1202 0.402222 18.303C0.594731 18.4858 0.855829 18.5885 1.12808 18.5885H10.0681V11.7208H7.64178V9.06242H10.0681V7.0686C10.0178 6.6005 10.076 6.12763 10.2386 5.68315C10.4012 5.23867 10.6642 4.83334 11.0092 4.49561C11.3542 4.15787 11.7728 3.89589 12.2357 3.72805C12.6987 3.56021 13.1946 3.49058 13.6889 3.52403C14.4152 3.51927 15.1412 3.55477 15.8632 3.63037V6.02295H14.3795C13.2036 6.02295 12.9797 6.55464 12.9797 7.32558V9.03584H15.7792L15.4153 11.6943H12.9797V18.5885H17.739C17.8738 18.5885 18.0072 18.5632 18.1318 18.5143C18.2563 18.4653 18.3695 18.3935 18.4648 18.303C18.5601 18.2124 18.6357 18.105 18.6873 17.9867C18.7389 17.8685 18.7655 17.7417 18.7655 17.6137V1.84036C18.7655 1.71235 18.7389 1.5856 18.6873 1.46733C18.6357 1.34907 18.5601 1.24161 18.4648 1.1511C18.3695 1.06059 18.2563 0.988786 18.1318 0.9398C18.0072 0.890813 17.8738 0.865601 17.739 0.865601Z" fill="black"/>
</svg>
