<svg width="16" height="13" viewBox="0 0 16 13" fill="none" xmlns="http://www.w3.org/2000/svg">
<path d="M13.9465 0.943798C14.1728 0.636106 14.4784 0.463501 14.7969 0.463501C15.1153 0.463501 15.4209 0.636106 15.6472 0.943798C15.759 1.09489 15.8477 1.27499 15.9082 1.47362C15.9688 1.67224 16 1.88542 16 2.10076C16 2.31609 15.9688 2.52927 15.9082 2.7279C15.8477 2.92652 15.759 3.10662 15.6472 3.25772L8.85124 12.4036C8.62442 12.7108 8.31862 12.8831 8 12.8831C7.68138 12.8831 7.37558 12.7108 7.14876 12.4036L0.352777 3.25772C0.241047 3.10662 0.152318 2.92652 0.0917536 2.7279C0.0311894 2.52927 0 2.31609 0 2.10076C0 1.88542 0.0311894 1.67224 0.0917536 1.47362C0.152318 1.27499 0.241047 1.09489 0.352777 0.943798C0.57908 0.636106 0.884678 0.463501 1.20315 0.463501C1.52161 0.463501 1.82721 0.636106 2.05351 0.943798L8.00261 8.44434L13.9465 0.943798Z" fill="#BFD2F8"/>
</svg>
