<svg width="47" height="47" viewBox="0 0 47 47" fill="none" xmlns="http://www.w3.org/2000/svg">
<path d="M35.8095 29.0952H8.95238L0 38.0476V2.2381C0 1.64452 0.235799 1.07525 0.655523 0.655523C1.07525 0.235799 1.64452 0 2.2381 0H35.8095C36.4031 0 36.9724 0.235799 37.3921 0.655523C37.8118 1.07525 38.0476 1.64452 38.0476 2.2381V26.8571C38.0476 27.4507 37.8118 28.02 37.3921 28.4397C36.9724 28.8594 36.4031 29.0952 35.8095 29.0952ZM47 15.6667V47L38.0476 38.0476H13.4286C12.835 38.0476 12.2657 37.8118 11.846 37.3921C11.4263 36.9724 11.1905 36.4031 11.1905 35.8095V33.5714H42.5238V13.4286H44.7619C45.3555 13.4286 45.9248 13.6644 46.3445 14.0841C46.7642 14.5038 47 15.0731 47 15.6667ZM13.8538 4.47619C11.9067 4.47619 10.34 4.92381 9.13143 5.79667C7.96762 6.71429 7.38571 7.99 7.4081 9.7581L7.43048 9.82524H11.75C11.7724 9.15381 11.9738 8.63905 12.3767 8.28095C12.7911 7.93728 13.3155 7.75452 13.8538 7.76619C14.5476 7.76619 15.1295 7.99 15.5324 8.39286C15.9352 8.8181 16.1143 9.4 16.1143 10.0714C16.1143 10.7876 15.9576 11.3919 15.5995 11.9067C15.2862 12.4214 14.8162 12.869 14.2343 13.2271C13.0929 13.9881 12.3095 14.6595 11.8843 15.2638C11.4367 15.8457 11.1905 16.7857 11.1905 17.9048H15.6667C15.6667 17.211 15.7562 16.6514 15.9576 16.2486C16.159 15.8457 16.5395 15.4429 17.099 15.0848C18.1062 14.5476 18.9343 13.8986 19.5833 13.0033C20.2324 12.1081 20.5681 11.1905 20.5681 10.0714C20.5681 8.37048 19.9638 7.00524 18.7552 5.9981C17.569 4.99095 15.9352 4.47619 13.8538 4.47619ZM11.1905 20.1429V24.619H15.6667V20.1429H11.1905ZM24.619 24.619H29.0952V20.1429H24.619V24.619ZM24.619 4.47619V17.9048H29.0952V4.47619H24.619Z" fill="white"/>
</svg>