<svg width="20" height="17" viewBox="0 0 20 17" fill="none" xmlns="http://www.w3.org/2000/svg">
<path d="M5.8 0H14.2C17.4 0 20 2.10226 20 4.68965V11.4816C20 12.7253 19.3889 13.9182 18.3012 14.7977C17.2135 15.6771 15.7383 16.1712 14.2 16.1712H5.8C2.6 16.1712 0 14.069 0 11.4816V4.68965C0 3.44588 0.61107 2.25305 1.69878 1.37357C2.78649 0.494087 4.26174 0 5.8 0ZM5.6 1.61712C4.64522 1.61712 3.72955 1.9238 3.05442 2.46968C2.37928 3.01557 2 3.75594 2 4.52794V11.6433C2 13.2523 3.61 14.5541 5.6 14.5541H14.4C15.3548 14.5541 16.2705 14.2474 16.9456 13.7015C17.6207 13.1557 18 12.4153 18 11.6433V4.52794C18 2.9189 16.39 1.61712 14.4 1.61712H5.6ZM15.25 2.82996C15.5815 2.82996 15.8995 2.93645 16.1339 3.12599C16.3683 3.31553 16.5 3.57261 16.5 3.84066C16.5 4.10872 16.3683 4.36579 16.1339 4.55534C15.8995 4.74488 15.5815 4.85137 15.25 4.85137C14.9185 4.85137 14.6005 4.74488 14.3661 4.55534C14.1317 4.36579 14 4.10872 14 3.84066C14 3.57261 14.1317 3.31553 14.3661 3.12599C14.6005 2.93645 14.9185 2.82996 15.25 2.82996ZM10 4.0428C11.3261 4.0428 12.5979 4.46874 13.5355 5.22691C14.4732 5.98509 15 7.01339 15 8.08561C15 9.15783 14.4732 10.1861 13.5355 10.9443C12.5979 11.7025 11.3261 12.1284 10 12.1284C8.67392 12.1284 7.40215 11.7025 6.46447 10.9443C5.52678 10.1861 5 9.15783 5 8.08561C5 7.01339 5.52678 5.98509 6.46447 5.22691C7.40215 4.46874 8.67392 4.0428 10 4.0428ZM10 5.65993C9.20435 5.65993 8.44129 5.91549 7.87868 6.37039C7.31607 6.8253 7 7.44228 7 8.08561C7 8.72894 7.31607 9.34592 7.87868 9.80083C8.44129 10.2557 9.20435 10.5113 10 10.5113C10.7956 10.5113 11.5587 10.2557 12.1213 9.80083C12.6839 9.34592 13 8.72894 13 8.08561C13 7.44228 12.6839 6.8253 12.1213 6.37039C11.5587 5.91549 10.7956 5.65993 10 5.65993Z" fill="black"/>
</svg>
