<svg width="20" height="17" viewBox="0 0 20 17" fill="none" xmlns="http://www.w3.org/2000/svg">
<path d="M18.9 0H1.1C0.808262 0 0.528473 0.0937062 0.322183 0.260504C0.115893 0.427302 0 0.653529 0 0.889417V15.2818C0 15.5177 0.115893 15.7439 0.322183 15.9107C0.528473 16.0775 0.808262 16.1712 1.1 16.1712H10.68V9.90487H8.08V7.47919H10.68V5.65993C10.6261 5.23281 10.6885 4.80134 10.8627 4.39577C11.0369 3.99021 11.3188 3.62037 11.6885 3.3122C12.0582 3.00403 12.5068 2.76499 13.0028 2.61184C13.4989 2.4587 14.0304 2.39516 14.56 2.42568C15.3383 2.42134 16.1163 2.45374 16.89 2.52271V4.70582H15.3C14.04 4.70582 13.8 5.19096 13.8 5.89441V7.45493H16.8L16.41 9.88061H13.8V16.1712H18.9C19.0445 16.1712 19.1875 16.1482 19.321 16.1035C19.4544 16.0588 19.5757 15.9933 19.6778 15.9107C19.78 15.8281 19.861 15.7301 19.9163 15.6222C19.9715 15.5143 20 15.3986 20 15.2818V0.889417C20 0.772617 19.9715 0.656961 19.9163 0.549052C19.861 0.441143 19.78 0.343094 19.6778 0.260504C19.5757 0.177914 19.4544 0.1124 19.321 0.0677029C19.1875 0.0230055 19.0445 0 18.9 0Z" fill="black"/>
</svg>
