<svg width="16" height="13" viewBox="0 0 16 13" fill="none" xmlns="http://www.w3.org/2000/svg">
<path d="M13.9465 0.975902C14.1728 0.66821 14.4784 0.495605 14.7969 0.495605C15.1153 0.495605 15.4209 0.66821 15.6472 0.975902C15.759 1.127 15.8477 1.3071 15.9082 1.50572C15.9688 1.70435 16 1.91753 16 2.13286C16 2.3482 15.9688 2.56138 15.9082 2.76C15.8477 2.95863 15.759 3.13873 15.6472 3.28982L8.85124 12.4357C8.62442 12.7429 8.31862 12.9152 8 12.9152C7.68138 12.9152 7.37558 12.7429 7.14876 12.4357L0.352777 3.28982C0.241047 3.13873 0.152318 2.95863 0.0917536 2.76C0.0311894 2.56138 0 2.3482 0 2.13286C0 1.91753 0.0311894 1.70435 0.0917536 1.50572C0.152318 1.3071 0.241047 1.127 0.352777 0.975902C0.57908 0.66821 0.884678 0.495605 1.20315 0.495605C1.52161 0.495605 1.82721 0.66821 2.05351 0.975902L8.00261 8.47644L13.9465 0.975902Z" fill="#BFD2F8"/>
</svg>
