<svg width="20" height="19" viewBox="0 0 20 19" fill="none" xmlns="http://www.w3.org/2000/svg">
<path d="M5.85199 0.865601H13.6908C16.6771 0.865601 19.1034 3.16957 19.1034 6.00523V13.4488C19.1034 14.8119 18.5331 16.1192 17.5181 17.0831C16.503 18.047 15.1263 18.5885 13.6908 18.5885H5.85199C2.86576 18.5885 0.439453 16.2845 0.439453 13.4488V6.00523C0.439453 4.64211 1.0097 3.33483 2.02475 2.37096C3.03979 1.4071 4.41649 0.865601 5.85199 0.865601ZM5.66535 2.63789C4.77435 2.63789 3.91985 2.97399 3.28982 3.57225C2.65979 4.17051 2.30584 4.98193 2.30584 5.828V13.6261C2.30584 15.3895 3.80829 16.8162 5.66535 16.8162H13.8775C14.7685 16.8162 15.623 16.4801 16.253 15.8818C16.883 15.2835 17.237 14.4721 17.237 13.6261V5.828C17.237 4.06458 15.7345 2.63789 13.8775 2.63789H5.66535ZM14.6707 3.9671C14.9801 3.9671 15.2768 4.0838 15.4955 4.29153C15.7143 4.49926 15.8372 4.781 15.8372 5.07478C15.8372 5.36855 15.7143 5.6503 15.4955 5.85803C15.2768 6.06576 14.9801 6.18246 14.6707 6.18246C14.3613 6.18246 14.0646 6.06576 13.8458 5.85803C13.6271 5.6503 13.5042 5.36855 13.5042 5.07478C13.5042 4.781 13.6271 4.49926 13.8458 4.29153C14.0646 4.0838 14.3613 3.9671 14.6707 3.9671ZM9.77141 5.29631C11.0089 5.29631 12.1957 5.76312 13.0708 6.59404C13.9458 7.42496 14.4374 8.55193 14.4374 9.72703C14.4374 10.9021 13.9458 12.0291 13.0708 12.86C12.1957 13.6909 11.0089 14.1577 9.77141 14.1577C8.53391 14.1577 7.3471 13.6909 6.47206 12.86C5.59702 12.0291 5.10543 10.9021 5.10543 9.72703C5.10543 8.55193 5.59702 7.42496 6.47206 6.59404C7.3471 5.76312 8.53391 5.29631 9.77141 5.29631ZM9.77141 7.0686C9.02891 7.0686 8.31682 7.34868 7.7918 7.84723C7.26678 8.34579 6.97182 9.02197 6.97182 9.72703C6.97182 10.4321 7.26678 11.1083 7.7918 11.6068C8.31682 12.1054 9.02891 12.3855 9.77141 12.3855C10.5139 12.3855 11.226 12.1054 11.751 11.6068C12.276 11.1083 12.571 10.4321 12.571 9.72703C12.571 9.02197 12.276 8.34579 11.751 7.84723C11.226 7.34868 10.5139 7.0686 9.77141 7.0686Z" fill="black"/>
</svg>
