<svg width="47" height="47" viewBox="0 0 47 47" fill="none" xmlns="http://www.w3.org/2000/svg">
<path d="M47 47V39.95C47 33.3042 47 29.9789 44.4179 27.9156C41.8388 25.85 37.6823 25.85 29.375 25.85L23.5 30.55L17.625 25.85C9.31775 25.85 5.16119 25.85 2.58206 27.9156C5.25266e-07 29.9789 0 33.3042 0 39.95V47M35.25 32.9V39.95M39.6562 36.425H30.8438M33.7812 10.575V8.225C33.7813 7.14488 33.5153 6.07533 32.9986 5.07743C32.482 4.07953 31.7246 3.17281 30.7699 2.40905C29.8152 1.64528 28.6818 1.03944 27.4345 0.626091C26.1871 0.212746 24.8502 0 23.5 0C22.1498 0 20.8129 0.212746 19.5655 0.626091C18.3182 1.03944 17.1848 1.64528 16.2301 2.40905C15.2754 3.17281 14.518 4.07953 14.0014 5.07743C13.4847 6.07533 13.2187 7.14488 13.2188 8.225V10.575C13.2187 11.6551 13.4847 12.7247 14.0014 13.7226C14.518 14.7205 15.2754 15.6272 16.2301 16.391C17.1848 17.1547 18.3182 17.7606 19.5655 18.1739C20.8129 18.5873 22.1498 18.8 23.5 18.8C24.8502 18.8 26.1871 18.5873 27.4345 18.1739C28.6818 17.7606 29.8152 17.1547 30.7699 16.391C31.7246 15.6272 32.482 14.7205 32.9986 13.7226C33.5153 12.7247 33.7813 11.6551 33.7812 10.575Z" stroke="white" stroke-width="1.5" stroke-linecap="round" stroke-linejoin="round"/>
</svg>
