<svg width="20" height="19" viewBox="0 0 20 19" fill="none" xmlns="http://www.w3.org/2000/svg">
<path d="M18.9 0H1.1C0.808262 0 0.528473 0.110098 0.322183 0.306074C0.115893 0.502049 0 0.767849 0 1.045V17.955C0 18.2322 0.115893 18.498 0.322183 18.6939C0.528473 18.8899 0.808262 19 1.1 19H10.68V11.6375H8.08V8.7875H10.68V6.65C10.6261 6.14817 10.6885 5.64122 10.8627 5.16471C11.0369 4.6882 11.3188 4.25367 11.6885 3.89159C12.0582 3.52951 12.5068 3.24866 13.0028 3.06873C13.4989 2.88879 14.0304 2.81414 14.56 2.85C15.3383 2.8449 16.1163 2.88296 16.89 2.964V5.529H15.3C14.04 5.529 13.8 6.099 13.8 6.9255V8.759H16.8L16.41 11.609H13.8V19H18.9C19.0445 19 19.1875 18.973 19.321 18.9205C19.4544 18.8679 19.5757 18.791 19.6778 18.6939C19.78 18.5969 19.861 18.4817 19.9163 18.3549C19.9715 18.2281 20 18.0922 20 17.955V1.045C20 0.907769 19.9715 0.771881 19.9163 0.645096C19.861 0.518311 19.78 0.403111 19.6778 0.306074C19.5757 0.209036 19.4544 0.132062 19.321 0.079546C19.1875 0.0270298 19.0445 0 18.9 0Z" fill="black"/>
</svg>
