<svg width="72" height="74" viewBox="0 0 72 74" fill="none" xmlns="http://www.w3.org/2000/svg">
<path d="M36 73.75C55.8823 73.75 72 57.2965 72 37C72 16.7035 55.8823 0.25 36 0.25C16.1177 0.25 0 16.7035 0 37C0 57.2965 16.1177 73.75 36 73.75Z" fill="#EBF2FA"/>
<path d="M56.5715 42.2499H48.8572C46.0184 42.2499 43.7144 39.8979 43.7144 36.9999C43.7144 34.1019 46.0184 31.7499 48.8572 31.7499H56.5715" stroke="#1F2F60" stroke-width="1.25" stroke-linecap="round" stroke-linejoin="round"/>
<path d="M25.7138 18.625H46.2852C51.963 18.625 56.571 23.329 56.571 29.125V44.875C56.571 50.671 51.963 55.375 46.2852 55.375H25.7138C20.0361 55.375 15.4281 50.671 15.4281 44.875V29.125C15.4281 23.329 20.0361 18.625 25.7138 18.625Z" stroke="#1F2F60" stroke-width="1.25" stroke-linecap="round" stroke-linejoin="round"/>
<path d="M25.7144 29.1253H36.0001" stroke="#1A787A" stroke-width="1.25" stroke-linecap="round" stroke-linejoin="round"/>
</svg>
