<svg width="96" height="96" viewBox="0 0 96 96" fill="none" xmlns="http://www.w3.org/2000/svg">
<circle cx="48" cy="48" r="48" fill="#03337C"/>
<path d="M72 74V66.95C72 60.3042 72 56.9789 69.4179 54.9156C66.8388 52.85 62.6823 52.85 54.375 52.85L48.5 57.55L42.625 52.85C34.3177 52.85 30.1612 52.85 27.5821 54.9156C25 56.9789 25 60.3042 25 66.95V74M60.25 59.9V66.95M64.6562 63.425H55.8438M58.7812 37.575V35.225C58.7813 34.1449 58.5153 33.0753 57.9986 32.0774C57.482 31.0795 56.7246 30.1728 55.7699 29.409C54.8152 28.6453 53.6818 28.0394 52.4345 27.6261C51.1871 27.2127 49.8502 27 48.5 27C47.1498 27 45.8129 27.2127 44.5655 27.6261C43.3182 28.0394 42.1848 28.6453 41.2301 29.409C40.2754 30.1728 39.518 31.0795 39.0014 32.0774C38.4847 33.0753 38.2187 34.1449 38.2188 35.225V37.575C38.2187 38.6551 38.4847 39.7247 39.0014 40.7226C39.518 41.7205 40.2754 42.6272 41.2301 43.391C42.1848 44.1547 43.3182 44.7606 44.5655 45.1739C45.8129 45.5873 47.1498 45.8 48.5 45.8C49.8502 45.8 51.1871 45.5873 52.4345 45.1739C53.6818 44.7606 54.8152 44.1547 55.7699 43.391C56.7246 42.6272 57.482 41.7205 57.9986 40.7226C58.5153 39.7247 58.7813 38.6551 58.7812 37.575Z" stroke="white" stroke-width="1.5" stroke-linecap="round" stroke-linejoin="round"/>
</svg>
