<svg width="36" height="30" viewBox="0 0 36 30" fill="none" xmlns="http://www.w3.org/2000/svg">
<path d="M0 14.75C-3.47341e-08 16.687 0.459117 18.605 1.35114 20.3946C2.24316 22.1841 3.55061 23.8102 5.19885 25.1798C6.84709 26.5495 8.80384 27.636 10.9574 28.3772C13.1109 29.1185 15.419 29.5 17.75 29.5C20.081 29.5 22.3891 29.1185 24.5426 28.3772C26.6962 27.636 28.6529 26.5495 30.3011 25.1798C31.9494 23.8102 33.2568 22.1841 34.1489 20.3946C35.0409 18.605 35.5 16.687 35.5 14.75C35.5 10.8381 33.6299 7.08634 30.3011 4.32017C26.9724 1.55401 22.4576 0 17.75 0C13.0424 0 8.52762 1.55401 5.19885 4.32017C1.87008 7.08634 7.01486e-08 10.8381 0 14.75Z" stroke="#F8F8F8" stroke-width="2" stroke-linecap="round" stroke-linejoin="round"/>
<path d="M17.75 6.55566V14.7501L23.6667 19.6668" stroke="#F8F8F8" stroke-width="2" stroke-linecap="round" stroke-linejoin="round"/>
</svg>
