<svg width="3" height="5" viewBox="0 0 3 5" fill="none" xmlns="http://www.w3.org/2000/svg">
<path d="M2.74516 1.89317C2.58659 1.33455 2.07843 0.95253 1.49818 0.95253C0.78099 0.95253 0.197144 1.53277 0.197144 2.25357C0.197144 2.83381 0.579166 3.34197 1.13778 3.50055V4.50966C1.13778 4.70788 1.29996 4.87006 1.49818 4.87006C1.6964 4.87006 1.85858 4.70788 1.85858 4.50966V3.50055C2.54694 3.30233 2.94699 2.58153 2.74516 1.89317ZM1.49818 2.83021C1.17743 2.83021 0.917941 2.57072 0.917941 2.24996C0.917941 1.92921 1.17743 1.66972 1.49818 1.66972C1.81894 1.66972 2.07842 1.92921 2.07842 2.24996C2.07842 2.57072 1.81894 2.83021 1.49818 2.83021Z" fill="#000842"/>
</svg>