<svg width="20" height="19" viewBox="0 0 20 19" fill="none" xmlns="http://www.w3.org/2000/svg">
<path d="M15.8333 2.375C16.2754 2.375 16.6993 2.54181 17.0118 2.83875C17.3244 3.13568 17.5 3.53841 17.5 3.95833V15.0417C17.5 15.4616 17.3244 15.8643 17.0118 16.1613C16.6993 16.4582 16.2754 16.625 15.8333 16.625H4.16667C3.72464 16.625 3.30072 16.4582 2.98816 16.1613C2.67559 15.8643 2.5 15.4616 2.5 15.0417V3.95833C2.5 3.53841 2.67559 3.13568 2.98816 2.83875C3.30072 2.54181 3.72464 2.375 4.16667 2.375H15.8333ZM15.4167 14.6458V10.45C15.4167 9.76552 15.1304 9.10908 14.621 8.62508C14.1115 8.14108 13.4205 7.86917 12.7 7.86917C11.9917 7.86917 11.1667 8.28083 10.7667 8.89833V8.01958H8.44167V14.6458H10.7667V10.7429C10.7667 10.1333 11.2833 9.63458 11.925 9.63458C12.2344 9.63458 12.5312 9.75135 12.75 9.95921C12.9688 10.1671 13.0917 10.449 13.0917 10.7429V14.6458H15.4167ZM5.73333 6.77667C6.10464 6.77667 6.46073 6.63654 6.72328 6.38712C6.98583 6.1377 7.13333 5.7994 7.13333 5.44667C7.13333 4.71042 6.50833 4.10875 5.73333 4.10875C5.35982 4.10875 5.0016 4.24971 4.73749 4.50062C4.47338 4.75152 4.325 5.09183 4.325 5.44667C4.325 6.18292 4.95833 6.77667 5.73333 6.77667ZM6.89167 14.6458V8.01958H4.58333V14.6458H6.89167Z" fill="black"/>
</svg>
